:version 1.10
:name ASF
:units
  mass 1
  length 1
  angle deg
:documentation
  ASF file generated by Kaydara
:root
  axis xyz
  order  tx ty tz rx ry rz
  position 0 0 0
  orientation 0 0 0
:bonedata
  begin
    id 1
    name RightUpLegDummy
    direction -0.718183 -0.695806 0.00816078
    length 4.904
    axis 0 0 0 xyz
  end
  begin
    id 2
    name RightUpLeg
    direction 3.53373e-006 -0.995788 0.0916898
    length 17.4976
    axis -3.49089 -0.000906625 0.000286804 xyz
    dof rx ry rz
  end
  begin
    id 3
    name RightLeg
    direction 0.00371092 -0.995096 -0.0988419
    length 16.5821
    axis 3.68512 0.0193738 -0.131023 xyz
    dof rx ry rz
  end
  begin
    id 4
    name RightFoot
    direction 0.00079151 -0.46099 0.887405
    length 3.77069
    axis 4.81691e-005 -0.120479 -0.188788 xyz
    dof rx ry rz
  end
  begin
    id 5
    name RightToes
    direction 0 0 0
    length 0
    axis 0 0 0 xyz
    dof rx ry rz
  end
  begin
    id 6
    name SpineDummy
    direction 8.3039e-015 1 4.57515e-016
    length 4.6813
    axis 0 0 0 xyz
  end
  begin
    id 7
    name Spine
    direction -3.15643e-008 0.999988 0.00495137
    length 10.1015
    axis -0.001389 0.000121418 2.40972e-006 xyz
    dof rx ry rz
  end
  begin
    id 8
    name Spine1
    direction 0 0 0
    length 0
    axis -0.001389 0.000121451 1.30017e-006 xyz
    dof rx ry rz
  end
  begin
    id 9
    name HEadDummy
    direction -1.99912e-008 0.999999 0.00127422
    length 3.43865
    axis -0.001389 0.000121451 1.30017e-006 xyz
  end
  begin
    id 10
    name HEad
    direction 0 0 0
    length 0
    axis 0 0 0 xyz
    dof rx ry rz
  end
  begin
    id 11
    name LeftShoulder1Dummy
    direction 0.998891 -0.0402509 -0.0244456
    length 3.5433
    axis -0.001389 0.000121451 1.30017e-006 xyz
  end
  begin
    id 12
    name LeftShoulder1
    direction 0.99951 -0.000327763 0.0313091
    length 4.05031
    axis -0.001389 0.000121451 1.30017e-006 xyz
    dof rx ry rz
  end
  begin
    id 13
    name LeftArm
    direction 0.998561 -0.00100056 -0.0536182
    length 10.3537
    axis -23.1894 0.134784 0.967509 xyz
    dof rx ry rz
  end
  begin
    id 14
    name LeftForeArm
    direction 0.998903 0.00866432 0.046012
    length 8.70632
    axis -9.91835 -0.06569 -0.177794 xyz
    dof rx ry rz
  end
  begin
    id 15
    name LeftHand
    direction 0 0 0
    length 0
    axis 0 0 0 xyz
    dof rx ry rz
  end
  begin
    id 16
    name RightShoulderDummy
    direction -0.998891 -0.0402509 -0.0244414
    length 3.5433
    axis -0.001389 0.000121451 1.30017e-006 xyz
  end
  begin
    id 17
    name RightShoulder
    direction -0.99951 -0.000327807 0.0313133
    length 4.05031
    axis 0.215806 0.000203643 -0.0068026 xyz
    dof rx ry rz
  end
  begin
    id 18
    name RightArm
    direction -0.998573 -0.000999564 -0.053403
    length 10.3947
    axis -23.2009 -0.134239 -0.964101 xyz
    dof rx ry rz
  end
  begin
    id 19
    name RightForeArm
    direction -0.998898 0.00868028 0.0461306
    length 8.68355
    axis -9.92322 0.0658061 0.178868 xyz
    dof rx ry rz
  end
  begin
    id 20
    name RightHand
    direction 0 0 0
    length 0
    axis 0 0 0 xyz
    dof rx ry rz
  end
  begin
    id 21
    name LeftUpLegDummy
    direction 0.718183 -0.695806 0.00816078
    length 4.904
    axis 0 0 0 xyz
  end
  begin
    id 22
    name LeftUpLeg
    direction -6.81752e-006 -0.995793 0.0916337
    length 17.4976
    axis -3.48766 0.00143442 -0.000524262 xyz
    dof rx ry rz
  end
  begin
    id 23
    name LeftLeg
    direction -0.00601358 -0.995091 -0.0987824
    length 16.5821
    axis 3.68178 -0.00654042 -0.000285133 xyz
    dof rx ry rz
  end
  begin
    id 24
    name LeftFoot
    direction -0.00417578 -0.460984 0.887399
    length 3.77069
    axis 1.87233e-006 4.66016e-005 -8.6538e-006 xyz
    dof rx ry rz
  end
  begin
    id 25
    name LeftToes
    direction 0 0 0
    length 0
    axis 0 0 0 xyz
    dof rx ry rz
  end
:hierarchy
  begin
    root RightUpLegDummy SpineDummy LeftUpLegDummy
    RightUpLegDummy RightUpLeg
    RightUpLeg RightLeg
    RightLeg RightFoot
    RightFoot RightToes
    SpineDummy Spine
    Spine Spine1
    Spine1 HEadDummy LeftShoulder1Dummy RightShoulderDummy
    HEadDummy HEad
    LeftShoulder1Dummy LeftShoulder1
    LeftShoulder1 LeftArm
    LeftArm LeftForeArm
    LeftForeArm LeftHand
    RightShoulderDummy RightShoulder
    RightShoulder RightArm
    RightArm RightForeArm
    RightForeArm RightHand
    LeftUpLegDummy LeftUpLeg
    LeftUpLeg LeftLeg
    LeftLeg LeftFoot
    LeftFoot LeftToes
  end

:SAMPLES-PER-SECOND 30
:FULLY-SPECIFIED
:DEGREES
751
root  7.69139 37.8383 12.4285 -148.152 88.5108 -147.981
RightUpLeg  -22.5498 -11.8196 -14.1965
RightLeg  35.7567 -12.0196 -9.38204
RightFoot  -1.20615 -0.345575 3.87771
RightToes  0.000481921 0.542163 -0.142578
Spine  40.9127 -1.20602 2.33941
Spine1  -6.8988 -0.441148 0.473223
HEad  -20.5195 7.34476 -8.43501
LeftShoulder1  7.67813 -13.9236 -37.9098
LeftArm  4.70994 -8.25853 -41.2947
LeftForeArm  -175.642 -60.4644 -163.803
LeftHand  -0.25398 0.0180481 5.50724
RightShoulder  4.79372 10.0482 29.3969
RightArm  3.50766 0.830881 46.6473
RightForeArm  165.224 60.3325 162.154
RightHand  -1.46732 3.94783 -18.4244
LeftUpLeg  -25.8486 15.878 5.36783
LeftLeg  37.1513 4.43321 3.97318
LeftFoot  -8.16152 0.208223 -5.7368
LeftToes  1.06245e-005 4.65868e-005 -8.65517e-006
752
root  7.66782 37.9445 11.8765 -135.724 88.7292 -135.481
RightUpLeg  -23.2877 -13.0486 -12.2551
RightLeg  38.1356 -9.95436 -8.55739
RightFoot  -5.03806 -0.33177 5.27153
RightToes  0.000481921 0.542163 -0.142578
Spine  41.2209 -1.16716 2.41723
Spine1  -7.12119 -0.419226 0.733482
HEad  -21.4085 6.78509 -7.98422
LeftShoulder1  7.62003 -13.836 -37.8017
LeftArm  4.24822 -8.17611 -40.8355
LeftForeArm  -175.715 -60.3008 -163.9
LeftHand  -0.25398 0.0180481 5.50724
RightShoulder  4.87961 10.1547 29.7571
RightArm  3.68235 1.04669 46.4817
RightForeArm  165.256 60.3113 162.171
RightHand  -1.46902 3.95564 -18.4304
LeftUpLeg  -25.4877 15.9359 4.5242
LeftLeg  36.7766 4.73851 4.16586
LeftFoot  -8.40371 0.181925 -5.12783
LeftToes  1.06245e-005 4.65868e-005 -8.65517e-006
753
root  7.62397 38.0616 11.4259 -112.432 88.882 -112.301
RightUpLeg  -24.3528 -14.1097 -9.38011
RightLeg  41.0569 -10.7841 -10.1983
RightFoot  -8.70984 -0.162245 4.39999
RightToes  0.000481921 0.542163 -0.142578
Spine  41.4087 -1.00418 2.50027
Spine1  -7.31815 -0.313865 1.12074
HEad  -22.1686 6.29452 -7.4374
LeftShoulder1  7.59379 -13.791 -37.7659
LeftArm  3.94145 -8.2269 -40.4713
LeftForeArm  -175.663 -60.139 -164.007
LeftHand  -0.25398 0.0180481 5.50724
RightShoulder  4.91039 10.1952 29.878
RightArm  3.82743 1.35717 46.4164
RightForeArm  165.297 60.4375 162.088
RightHand  -1.46215 3.91512 -18.4228
LeftUpLeg  -25.3264 15.9632 3.8604
LeftLeg  36.2618 5.29753 4.52879
LeftFoot  -8.40923 0.158111 -4.21453
LeftToes  1.06245e-005 4.65868e-005 -8.65517e-006
754
root  7.56307 38.1492 11.0736 -95.9613 88.9899 -96.0437
RightUpLeg  -25.3734 -15.4049 -6.28284
RightLeg  43.4683 -12.5383 -12.6994
RightFoot  -11.5148 -0.0679304 3.8921
RightToes  0.000481921 0.542163 -0.142578
Spine  41.5754 -0.893202 2.4499
Spine1  -7.43592 -0.278933 1.31024
HEad  -22.858 5.95192 -6.95448
LeftShoulder1  7.60976 -13.8411 -37.7322
LeftArm  3.87707 -8.22239 -40.2433
LeftForeArm  -175.744 -59.9147 -164.139
LeftHand  -0.25398 0.0180481 5.50724
RightShoulder  4.88533 10.1759 29.7432
RightArm  3.93587 1.63037 46.5312
RightForeArm  165.289 60.5804 161.989
RightHand  -1.4358 3.77603 -18.3624
LeftUpLeg  -25.3172 15.6787 3.18244
LeftLeg  35.7145 6.04156 5.01384
LeftFoot  -8.18763 0.153413 -3.7852
LeftToes  1.06245e-005 4.65868e-005 -8.65517e-006
755
root  7.50824 38.1783 10.8063 -102.217 89.2585 -102.483
RightUpLeg  -25.758 -17.3924 -3.17541
RightLeg  43.9023 -12.242 -12.6219
RightFoot  -13.8069 0.0083958 4.75803
RightToes  0.000481921 0.542163 -0.142578
Spine  41.8028 -0.912437 2.19188
Spine1  -7.48237 -0.427048 1.38639
HEad  -23.3901 5.72718 -6.53279
LeftShoulder1  7.63768 -13.9312 -37.6678
LeftArm  4.05409 -8.01137 -40.2467
LeftForeArm  -175.772 -59.6497 -164.3
LeftHand  -0.25398 0.0180481 5.50724
RightShoulder  4.87285 10.1783 29.6437
RightArm  3.98542 1.80896 46.4954
RightForeArm  165.212 60.5934 161.972
RightHand  -1.40698 3.59996 -18.3403
LeftUpLeg  -25.3763 15.2983 2.35763
LeftLeg  35.3175 6.37297 5.1953
LeftFoot  -8.10514 0.156126 -3.80535
LeftToes  1.06245e-005 4.65868e-005 -8.65517e-006
756
root  7.4771 38.155 10.6188 -138.984 89.3987 -139.468
RightUpLeg  -25.4302 -19.1 -0.0690249
RightLeg  42.0147 -10.2343 -10.0268
RightFoot  -15.4758 0.0367178 3.99251
RightToes  0.000481921 0.542163 -0.142578
Spine  41.9614 -0.97919 1.90459
Spine1  -7.43491 -0.673131 1.62069
HEad  -23.6117 5.41367 -6.08988
LeftShoulder1  7.67535 -14.0325 -37.6307
LeftArm  4.4455 -7.68134 -40.4954
LeftForeArm  -175.561 -59.4765 -164.423
LeftHand  -0.25398 0.0180481 5.50724
RightShoulder  4.86777 10.1748 29.6154
RightArm  3.8378 1.87024 46.2852
RightForeArm  165.284 60.4804 162.057
RightHand  -1.38354 3.47363 -18.2882
LeftUpLeg  -25.7257 15.1584 1.48763
LeftLeg  35.319 6.22489 5.08321
LeftFoot  -8.2376 0.144766 -3.51682
LeftToes  1.06245e-005 4.65868e-005 -8.65517e-006
